 <svg width="166" height="38" viewBox="0 0 166 38" fill="none" xmlns="http://www.w3.org/2000/svg">
<g opacity="0.2">
<path fill-rule="evenodd" clip-rule="evenodd" d="M165.269 0.984345V36.629C165.269 37.1659 164.639 37.6134 163.883 37.6134H1.42764C0.629845 37.6134 0 37.1659 0 36.629V0.984345C0 0.447437 0.629845 0 1.42764 0H163.883C164.639 0 165.269 0.447437 165.269 0.984345ZM1.42764 0.984345V36.629H163.883V0.984345H1.42764Z" fill="#F2F2F2"/>
<path fill-rule="evenodd" clip-rule="evenodd" d="M165.269 0.984345V36.629C165.269 37.1659 164.639 37.6134 163.883 37.6134H1.42764C0.629845 37.6134 0 37.1659 0 36.629V0.984345C0 0.447437 0.629845 0 1.42764 0H163.883C164.639 0 165.269 0.447437 165.269 0.984345ZM1.42764 0.984345V36.629H163.883V0.984345H1.42764Z" fill="url(#paint0_linear_14_405)"/>
</g>
<defs>
<linearGradient id="paint0_linear_14_405" x1="-0.013949" y1="37.6145" x2="-0.013949" y2="0.000367684" gradientUnits="userSpaceOnUse">
<stop stop-color="#AE5D23"/>
<stop offset="0.506" stop-color="#FFC87F"/>
<stop offset="1" stop-color="#B1603C"/>
</linearGradient>
</defs>
</svg>
