<svg width="42" height="42" viewBox="0 0 42 42" fill="none" xmlns="http://www.w3.org/2000/svg">
<path d="M23.3143 16.8381V10.3619C23.3143 10.0184 23.4507 9.68893 23.6936 9.44602C23.9365 9.20312 24.266 9.06666 24.6095 9.06666C24.953 9.06666 25.2825 9.20312 25.5254 9.44602C25.7683 9.68893 25.9047 10.0184 25.9047 10.3619V13.7117L32.7598 6.85504C33.0028 6.612 33.3325 6.47546 33.6762 6.47546C34.0199 6.47546 34.3495 6.612 34.5925 6.85504C34.8356 7.09808 34.9721 7.42771 34.9721 7.77142C34.9721 8.11513 34.8356 8.44476 34.5925 8.6878L27.7359 15.5428H31.0857C31.4292 15.5428 31.7587 15.6793 32.0016 15.9222C32.2445 16.1651 32.3809 16.4946 32.3809 16.8381C32.3809 17.1816 32.2445 17.511 32.0016 17.754C31.7587 17.9969 31.4292 18.1333 31.0857 18.1333H24.6095C24.266 18.1333 23.9365 17.9969 23.6936 17.754C23.4507 17.511 23.3143 17.1816 23.3143 16.8381ZM16.8381 23.3143H10.3619C10.0184 23.3143 9.68893 23.4507 9.44602 23.6936C9.20312 23.9365 9.06666 24.266 9.06666 24.6095C9.06666 24.953 9.20312 25.2825 9.44602 25.5254C9.68893 25.7683 10.0184 25.9047 10.3619 25.9047H13.7117L6.85504 32.7598C6.612 33.0028 6.47546 33.3325 6.47546 33.6762C6.47546 34.0199 6.612 34.3495 6.85504 34.5925C7.09808 34.8356 7.42771 34.9721 7.77142 34.9721C8.11513 34.9721 8.44476 34.8356 8.6878 34.5925L15.5428 27.7359V31.0857C15.5428 31.4292 15.6793 31.7587 15.9222 32.0016C16.1651 32.2445 16.4946 32.3809 16.8381 32.3809C17.1816 32.3809 17.511 32.2445 17.754 32.0016C17.9969 31.7587 18.1333 31.4292 18.1333 31.0857V24.6095C18.1333 24.266 17.9969 23.9365 17.754 23.6936C17.511 23.4507 17.1816 23.3143 16.8381 23.3143ZM27.7359 25.9047H31.0857C31.4292 25.9047 31.7587 25.7683 32.0016 25.5254C32.2445 25.2825 32.3809 24.953 32.3809 24.6095C32.3809 24.266 32.2445 23.9365 32.0016 23.6936C31.7587 23.4507 31.4292 23.3143 31.0857 23.3143H24.6095C24.266 23.3143 23.9365 23.4507 23.6936 23.6936C23.4507 23.9365 23.3143 24.266 23.3143 24.6095V31.0857C23.3143 31.4292 23.4507 31.7587 23.6936 32.0016C23.9365 32.2445 24.266 32.3809 24.6095 32.3809C24.953 32.3809 25.2825 32.2445 25.5254 32.0016C25.7683 31.7587 25.9047 31.4292 25.9047 31.0857V27.7359L32.7598 34.5925C32.8801 34.7129 33.023 34.8083 33.1802 34.8735C33.3375 34.9386 33.506 34.9721 33.6762 34.9721C33.8464 34.9721 34.0149 34.9386 34.1721 34.8735C34.3293 34.8083 34.4722 34.7129 34.5925 34.5925C34.7129 34.4722 34.8083 34.3293 34.8735 34.1721C34.9386 34.0149 34.9721 33.8464 34.9721 33.6762C34.9721 33.506 34.9386 33.3375 34.8735 33.1802C34.8083 33.023 34.7129 32.8801 34.5925 32.7598L27.7359 25.9047ZM16.8381 9.06666C16.4946 9.06666 16.1651 9.20312 15.9222 9.44602C15.6793 9.68893 15.5428 10.0184 15.5428 10.3619V13.7117L8.6878 6.85504C8.44476 6.612 8.11513 6.47546 7.77142 6.47546C7.42771 6.47546 7.09808 6.612 6.85504 6.85504C6.612 7.09808 6.47546 7.42771 6.47546 7.77142C6.47546 8.11513 6.612 8.44476 6.85504 8.6878L13.7117 15.5428H10.3619C10.0184 15.5428 9.68893 15.6793 9.44602 15.9222C9.20312 16.1651 9.06666 16.4946 9.06666 16.8381C9.06666 17.1816 9.20312 17.511 9.44602 17.754C9.68893 17.9969 10.0184 18.1333 10.3619 18.1333H16.8381C17.1816 18.1333 17.511 17.9969 17.754 17.754C17.9969 17.511 18.1333 17.1816 18.1333 16.8381V10.3619C18.1333 10.0184 17.9969 9.68893 17.754 9.44602C17.511 9.20312 17.1816 9.06666 16.8381 9.06666Z" fill="#343330"/>
<path d="M23.3143 16.8381V10.3619C23.3143 10.0184 23.4507 9.68893 23.6936 9.44602C23.9365 9.20312 24.266 9.06666 24.6095 9.06666C24.953 9.06666 25.2825 9.20312 25.5254 9.44602C25.7683 9.68893 25.9047 10.0184 25.9047 10.3619V13.7117L32.7598 6.85504C33.0028 6.612 33.3325 6.47546 33.6762 6.47546C34.0199 6.47546 34.3495 6.612 34.5925 6.85504C34.8356 7.09808 34.9721 7.42771 34.9721 7.77142C34.9721 8.11513 34.8356 8.44476 34.5925 8.6878L27.7359 15.5428H31.0857C31.4292 15.5428 31.7587 15.6793 32.0016 15.9222C32.2445 16.1651 32.3809 16.4946 32.3809 16.8381C32.3809 17.1816 32.2445 17.511 32.0016 17.754C31.7587 17.9969 31.4292 18.1333 31.0857 18.1333H24.6095C24.266 18.1333 23.9365 17.9969 23.6936 17.754C23.4507 17.511 23.3143 17.1816 23.3143 16.8381ZM16.8381 23.3143H10.3619C10.0184 23.3143 9.68893 23.4507 9.44602 23.6936C9.20312 23.9365 9.06666 24.266 9.06666 24.6095C9.06666 24.953 9.20312 25.2825 9.44602 25.5254C9.68893 25.7683 10.0184 25.9047 10.3619 25.9047H13.7117L6.85504 32.7598C6.612 33.0028 6.47546 33.3325 6.47546 33.6762C6.47546 34.0199 6.612 34.3495 6.85504 34.5925C7.09808 34.8356 7.42771 34.9721 7.77142 34.9721C8.11513 34.9721 8.44476 34.8356 8.6878 34.5925L15.5428 27.7359V31.0857C15.5428 31.4292 15.6793 31.7587 15.9222 32.0016C16.1651 32.2445 16.4946 32.3809 16.8381 32.3809C17.1816 32.3809 17.511 32.2445 17.754 32.0016C17.9969 31.7587 18.1333 31.4292 18.1333 31.0857V24.6095C18.1333 24.266 17.9969 23.9365 17.754 23.6936C17.511 23.4507 17.1816 23.3143 16.8381 23.3143ZM27.7359 25.9047H31.0857C31.4292 25.9047 31.7587 25.7683 32.0016 25.5254C32.2445 25.2825 32.3809 24.953 32.3809 24.6095C32.3809 24.266 32.2445 23.9365 32.0016 23.6936C31.7587 23.4507 31.4292 23.3143 31.0857 23.3143H24.6095C24.266 23.3143 23.9365 23.4507 23.6936 23.6936C23.4507 23.9365 23.3143 24.266 23.3143 24.6095V31.0857C23.3143 31.4292 23.4507 31.7587 23.6936 32.0016C23.9365 32.2445 24.266 32.3809 24.6095 32.3809C24.953 32.3809 25.2825 32.2445 25.5254 32.0016C25.7683 31.7587 25.9047 31.4292 25.9047 31.0857V27.7359L32.7598 34.5925C32.8801 34.7129 33.023 34.8083 33.1802 34.8735C33.3375 34.9386 33.506 34.9721 33.6762 34.9721C33.8464 34.9721 34.0149 34.9386 34.1721 34.8735C34.3293 34.8083 34.4722 34.7129 34.5925 34.5925C34.7129 34.4722 34.8083 34.3293 34.8735 34.1721C34.9386 34.0149 34.9721 33.8464 34.9721 33.6762C34.9721 33.506 34.9386 33.3375 34.8735 33.1802C34.8083 33.023 34.7129 32.8801 34.5925 32.7598L27.7359 25.9047ZM16.8381 9.06666C16.4946 9.06666 16.1651 9.20312 15.9222 9.44602C15.6793 9.68893 15.5428 10.0184 15.5428 10.3619V13.7117L8.6878 6.85504C8.44476 6.612 8.11513 6.47546 7.77142 6.47546C7.42771 6.47546 7.09808 6.612 6.85504 6.85504C6.612 7.09808 6.47546 7.42771 6.47546 7.77142C6.47546 8.11513 6.612 8.44476 6.85504 8.6878L13.7117 15.5428H10.3619C10.0184 15.5428 9.68893 15.6793 9.44602 15.9222C9.20312 16.1651 9.06666 16.4946 9.06666 16.8381C9.06666 17.1816 9.20312 17.511 9.44602 17.754C9.68893 17.9969 10.0184 18.1333 10.3619 18.1333H16.8381C17.1816 18.1333 17.511 17.9969 17.754 17.754C17.9969 17.511 18.1333 17.1816 18.1333 16.8381V10.3619C18.1333 10.0184 17.9969 9.68893 17.754 9.44602C17.511 9.20312 17.1816 9.06666 16.8381 9.06666Z" fill="url(#paint0_linear_14_430)"/>
<defs>
<linearGradient id="paint0_linear_14_430" x1="20.7238" y1="35.0161" x2="20.7242" y2="6.43152" gradientUnits="userSpaceOnUse">
<stop stop-color="#AE5D23"/>
<stop offset="0.506" stop-color="#FFC87F"/>
<stop offset="1" stop-color="#B1603C"/>
</linearGradient>
</defs>
</svg>
