<svg width="40" height="62" viewBox="0 0 59 62" fill="none" xmlns="http://www.w3.org/2000/svg">
<path fill-rule="evenodd" clip-rule="evenodd" d="M58.6663 29.3137C58.6663 29.6247 58.6274 29.9357 58.6274 30.2079C58.6274 30.3375 58.6144 30.4671 58.5885 30.5967C58.6144 30.7003 58.6274 30.817 58.6274 30.9466C58.6274 31.2187 58.6663 31.5297 58.6663 31.8407C58.6663 48.0138 45.5257 61.1544 29.3526 61.1544C13.1795 61.1544 0 48.0138 0 31.8407C0 31.5297 0.0388681 31.2187 0.0388681 30.9466C0.0388681 30.817 0.0518178 30.7003 0.0777362 30.5967C0.0518178 30.4671 0.0388681 30.3375 0.0388681 30.2079C0.0388681 29.9357 0 29.6247 0 29.3137C0 13.1406 13.1795 0 29.3526 0C45.5257 0 58.6663 13.1406 58.6663 29.3137ZM1.47732 29.3137C1.47732 29.7413 1.51623 30.169 1.5551 30.5967C1.51623 30.9854 1.47732 31.4131 1.47732 31.8407C1.47732 47.1974 13.9571 59.6771 29.3526 59.6771C44.7092 59.6771 57.1889 47.1974 57.1889 31.8407C57.1889 31.4131 57.1501 30.9854 57.1112 30.5967C57.1501 30.169 57.1889 29.7413 57.1889 29.3137C57.1889 13.957 44.7092 1.47732 29.3526 1.47732C13.9571 1.47732 1.47732 13.957 1.47732 29.3137Z" fill="#3A2000"/>
<path d="M57.1889 31.8408C57.1889 47.1974 44.7092 59.6772 29.3526 59.6772C13.957 59.6772 1.47729 47.1974 1.47729 31.8408C1.47729 16.4453 13.957 3.96558 29.3526 3.96558C44.7092 3.96558 57.1889 16.4453 57.1889 31.8408Z" fill="#AD5E00"/>
<path d="M57.1889 29.3136C57.1889 44.7092 44.7092 57.1889 29.3526 57.1889C13.957 57.1889 1.47729 44.7092 1.47729 29.3136C1.47729 13.957 13.957 1.47729 29.3526 1.47729C44.7092 1.47729 57.1889 13.957 57.1889 29.3136Z" fill="url(#paint0_linear_14_431)"/>
<g opacity="0.5">
<path d="M29.3526 2.33263C44.5926 2.33263 56.9556 14.5791 57.1889 29.7413C57.1889 29.6117 57.1889 29.4692 57.1889 29.3136C57.1889 13.957 44.7092 1.47729 29.3526 1.47729C13.957 1.47729 1.47729 13.957 1.47729 29.3136C1.47729 29.4692 1.47729 29.6117 1.47729 29.7413C1.71056 14.5791 14.1125 2.33263 29.3526 2.33263Z" fill="#F2F2F2"/>
</g>
<path d="M52.1736 29.3137C52.1736 41.9489 41.9488 52.1737 29.3525 52.1737C16.7173 52.1737 6.49243 41.9489 6.49243 29.3137C6.49243 16.7173 16.7173 6.49255 29.3525 6.49255C41.9488 6.49255 52.1736 16.7173 52.1736 29.3137Z" fill="url(#paint1_linear_14_431)"/>
<path opacity="0.7" fill-rule="evenodd" clip-rule="evenodd" d="M52.1736 29.3137C52.1736 41.9489 41.9488 52.1737 29.3525 52.1737C16.7173 52.1737 6.49243 41.9489 6.49243 29.3137C6.49243 16.7173 16.7173 6.49255 29.3525 6.49255C41.9488 6.49255 52.1736 16.7173 52.1736 29.3137ZM7.30885 29.3137C7.30885 41.4824 17.1838 51.3573 29.3525 51.3573C41.4823 51.3573 51.3572 41.4824 51.3572 29.3137C51.3572 17.1839 41.4823 7.30897 29.3525 7.30897C17.1838 7.30897 7.30885 17.1839 7.30885 29.3137Z" fill="#A44D00"/>
<path d="M29.3525 6.49255C16.7173 6.49255 6.49243 16.7173 6.49243 29.3137C6.49243 29.6636 6.53134 29.9746 6.57022 30.2856C7.07562 18.1558 17.0672 8.43643 29.3525 8.43643C41.5989 8.43643 51.5904 18.1558 52.1347 30.2856C52.1347 29.9746 52.1736 29.6636 52.1736 29.3137C52.1736 16.7173 41.9488 6.49255 29.3525 6.49255Z" fill="#A44D00"/>
<path d="M45.1368 31.2576C45.1368 40.0051 38.0611 47.042 29.3525 47.042C20.6051 47.042 13.5682 40.0051 13.5682 31.2576C13.5682 22.5491 20.6051 15.5122 29.3525 15.5122C38.0611 15.5122 45.1368 22.5491 45.1368 31.2576Z" fill="#A44D00"/>
<path d="M45.1368 29.3137C45.1368 38.0612 38.0611 45.0981 29.3525 45.0981C20.6051 45.0981 13.5682 38.0612 13.5682 29.3137C13.5682 20.6051 20.6051 13.5294 29.3525 13.5294C38.0611 13.5294 45.1368 20.6051 45.1368 29.3137Z" fill="url(#paint2_linear_14_431)"/>
<defs>
<linearGradient id="paint0_linear_14_431" x1="1.47807" y1="57.1839" x2="1.47807" y2="1.46874" gradientUnits="userSpaceOnUse">
<stop stop-color="#F5BB76"/>
<stop offset="1" stop-color="#B36429"/>
</linearGradient>
<linearGradient id="paint1_linear_14_431" x1="6.50448" y1="52.157" x2="6.50448" y2="6.49528" gradientUnits="userSpaceOnUse">
<stop stop-color="#A75400"/>
<stop offset="0.822" stop-color="#E8A23F"/>
</linearGradient>
<linearGradient id="paint2_linear_14_431" x1="13.5535" y1="45.1085" x2="13.5535" y2="13.5442" gradientUnits="userSpaceOnUse">
<stop stop-color="#B6672C"/>
<stop offset="1" stop-color="#FFEDD7"/>
</linearGradient>
</defs>
</svg>
