<svg width="65" height="65" viewBox="0 0 65 65" fill="none" xmlns="http://www.w3.org/2000/svg">
<path d="M7.72588 3.24976C5.25281 3.24976 3.24982 5.25274 3.24982 7.72582V56.799C3.24982 59.2721 5.25281 61.2751 7.72588 61.2751H56.799C59.2517 61.2751 61.2547 59.2721 61.2547 56.799V7.72582C61.2547 5.25274 59.2517 3.24976 56.799 3.24976H7.72588Z" fill="url(#paint0_radial_14_412)"/>
<path fill-rule="evenodd" clip-rule="evenodd" d="M64.5248 8.91125V55.634C64.5248 60.5392 60.5188 64.5248 55.6135 64.5248H8.89081C3.98553 64.5248 0 60.5392 0 55.634V8.91125C0 3.98554 3.98553 0 8.89081 0H55.6135C60.5188 0 64.5248 3.98554 64.5248 8.91125ZM8.89081 0.776669C4.41475 0.776669 0.776666 4.41475 0.776666 8.91125V55.634C0.776666 60.11 4.41475 63.7481 8.89081 63.7481H55.6135C60.0896 63.7481 63.7481 60.11 63.7481 55.634V8.91125C63.7481 4.41475 60.0896 0.776669 55.6135 0.776669H8.89081Z" fill="#301405"/>
<path fill-rule="evenodd" clip-rule="evenodd" d="M63.7482 8.91119V55.6339C63.7482 60.11 60.1101 63.7481 55.6136 63.7481H8.89087C4.41481 63.7481 0.776733 60.11 0.776733 55.6339V8.91119C0.776733 4.41469 4.41481 0.776611 8.89087 0.776611H55.6136C60.1101 0.776611 63.7482 4.41469 63.7482 8.91119ZM59.8853 8.91119C59.8853 6.56075 57.964 4.63952 55.6136 4.63952H23.5862C23.5862 4.63952 11.1205 4.63952 8.89087 4.63952C6.66123 4.63952 4.63964 6.2911 4.63964 8.91119C4.63964 11.5313 4.63964 55.6339 4.63964 55.6339C4.63964 57.9844 6.54043 59.8852 8.89087 59.8852H55.6136C57.964 59.8852 59.8853 57.9844 59.8853 55.6339V8.91119Z" fill="url(#paint1_linear_14_412)"/>
<g opacity="0.5">
<path d="M8.89094 60.3348H55.6137C57.9641 60.3348 59.8853 58.4136 59.8853 56.0631V55.6339C59.8853 57.9844 57.9641 59.8851 55.6137 59.8851H8.89094C6.5405 59.8851 4.63971 57.9844 4.63971 55.6339V56.0631C4.63971 58.4136 6.5405 60.3348 8.89094 60.3348Z" fill="#F2F2F2"/>
<path d="M55.6136 0.776611H8.89087C4.41481 0.776611 0.776733 4.41469 0.776733 8.91119V9.3404C0.776733 4.86434 4.41481 1.22626 8.89087 1.22626H55.6136C60.1101 1.22626 63.7482 4.86434 63.7482 9.3404V8.91119C63.7482 4.41469 60.1101 0.776611 55.6136 0.776611Z" fill="#F2F2F2"/>
</g>
<path fill-rule="evenodd" clip-rule="evenodd" d="M59.8852 8.9112V55.6339C59.8852 57.9844 57.964 59.8852 55.6136 59.8852H8.89082C6.54038 59.8852 4.63959 57.9844 4.63959 55.6339V8.9112C4.63959 6.66117 6.29116 4.63953 8.89082 4.63953C8.89082 4.63953 22.1759 4.63953 23.5862 4.63953H55.6136C57.964 4.63953 59.8852 6.56076 59.8852 8.9112ZM23.5862 5.41619C22.3803 5.41619 8.89082 5.41619 8.89082 5.41619C7.03129 5.55096 5.41625 6.80612 5.41625 8.9112V55.6339C5.41625 57.5552 6.96959 59.1085 8.89082 59.1085H55.6136C57.5348 59.1085 59.1086 57.5552 59.1086 55.6339V8.9112C59.1086 6.98997 57.5348 5.41619 55.6136 5.41619H23.5862Z" fill="#301405"/>
<defs>
<radialGradient id="paint0_radial_14_412" cx="0" cy="0" r="1" gradientUnits="userSpaceOnUse" gradientTransform="translate(32.2576 32.2636) scale(29.0069 29.0069)">
<stop stop-color="#311800"/>
<stop offset="1" stop-color="#160A00"/>
</radialGradient>
<linearGradient id="paint1_linear_14_412" x1="0.771418" y1="63.7499" x2="0.771418" y2="0.777227" gradientUnits="userSpaceOnUse">
<stop stop-color="#AE5D23"/>
<stop offset="0.506" stop-color="#FFC87F"/>
<stop offset="1" stop-color="#B1603C"/>
</linearGradient>
</defs>
</svg>
