<svg width="38" height="38" viewBox="0 0 38 38" fill="none" xmlns="http://www.w3.org/2000/svg">
<path d="M19.2585 3.56946C16.2778 3.56946 13.3639 4.45336 10.8855 6.1094C8.40706 7.76543 6.47536 10.1192 5.33467 12.8731C4.19397 15.627 3.89551 18.6573 4.47703 21.5808C5.05855 24.5043 6.49394 27.1897 8.60167 29.2974C10.7094 31.4052 13.3948 32.8406 16.3183 33.4221C19.2418 34.0036 22.2721 33.7051 25.026 32.5644C27.7799 31.4237 30.1337 29.492 31.7897 27.0136C33.4457 24.5352 34.3297 21.6213 34.3297 18.6406C34.3247 14.645 32.7352 10.8145 29.9099 7.98919C27.0846 5.16389 23.2541 3.57444 19.2585 3.56946ZM25.0551 19.7999H20.4179V24.4371C20.4179 24.7446 20.2957 25.0395 20.0783 25.2569C19.8609 25.4743 19.566 25.5965 19.2585 25.5965C18.9511 25.5965 18.6562 25.4743 18.4388 25.2569C18.2214 25.0395 18.0992 24.7446 18.0992 24.4371V19.7999H13.462C13.1545 19.7999 12.8596 19.6777 12.6422 19.4603C12.4248 19.2429 12.3027 18.948 12.3027 18.6406C12.3027 18.3331 12.4248 18.0382 12.6422 17.8208C12.8596 17.6034 13.1545 17.4812 13.462 17.4812H18.0992V12.844C18.0992 12.5365 18.2214 12.2416 18.4388 12.0242C18.6562 11.8068 18.9511 11.6847 19.2585 11.6847C19.566 11.6847 19.8609 11.8068 20.0783 12.0242C20.2957 12.2416 20.4179 12.5365 20.4179 12.844V17.4812H25.0551C25.3626 17.4812 25.6575 17.6034 25.8749 17.8208C26.0923 18.0382 26.2144 18.3331 26.2144 18.6406C26.2144 18.948 26.0923 19.2429 25.8749 19.4603C25.6575 19.6777 25.3626 19.7999 25.0551 19.7999Z" fill="url(#paint0_radial_14_447)"/>
<defs>
<radialGradient id="paint0_radial_14_447" cx="0" cy="0" r="1" gradientUnits="userSpaceOnUse" gradientTransform="translate(19.2585 18.6406) rotate(90) scale(15.0711)">
<stop stop-color="#64625C"/>
<stop offset="1" stop-color="#343330"/>
</radialGradient>
</defs>
</svg>
